<svg width="14" height="20" viewBox="0 0 14 20" fill="none" xmlns="http://www.w3.org/2000/svg">
<path d="M7 2.5C5.96484 2.5 5.125 3.33984 5.125 4.375V10.8008C5.125 11.4766 4.84766 12.0469 4.52734 12.4609C4.11719 12.9922 3.875 13.6523 3.875 14.375C3.875 16.1016 5.27344 17.5 7 17.5C8.72656 17.5 10.125 16.1016 10.125 14.375C10.125 13.6523 9.88281 12.9922 9.47266 12.4648C9.15234 12.0508 8.875 11.4805 8.875 10.8047V4.375C8.875 3.33984 8.03516 2.5 7 2.5ZM2.625 4.375C2.625 1.96094 4.58203 0 7 0C9.41797 0 11.375 1.95703 11.375 4.375V10.8008C11.375 10.8047 11.3789 10.8125 11.3828 10.8242C11.3906 10.8477 11.4141 10.8867 11.4492 10.9336C12.1875 11.8867 12.625 13.082 12.625 14.375C12.625 17.4805 10.1055 20 7 20C3.89453 20 1.375 17.4805 1.375 14.375C1.375 13.0781 1.8125 11.8828 2.55078 10.9336C2.58594 10.8867 2.60938 10.8477 2.61719 10.8242C2.62109 10.8125 2.625 10.8047 2.625 10.8008V4.375ZM8.875 14.375C8.875 15.4102 8.03516 16.25 7 16.25C5.96484 16.25 5.125 15.4102 5.125 14.375C5.125 13.5586 5.64844 12.8633 6.375 12.6055V8.125C6.375 7.78125 6.65625 7.5 7 7.5C7.34375 7.5 7.625 7.78125 7.625 8.125V12.6055C8.35156 12.8633 8.875 13.5586 8.875 14.375Z" fill="#4B5563"/>
</svg>
